<svg width="146" height="133" viewBox="0 0 146 133" fill="none" xmlns="http://www.w3.org/2000/svg">
<g filter="url(#filter0_d_3268_3610)">
<path fill-rule="evenodd" clip-rule="evenodd" d="M85.2852 29.0373C91.7313 26.0711 96.4584 25.0823 100.756 26.0711C103.688 26.7458 104.219 28.3414 104.534 29.2868C104.681 29.7268 104.78 30.026 105.053 30.026C105.913 30.026 105.913 29.6078 105.913 29.0373C105.913 28.0485 103.334 24.0936 96.4584 24.0936C88.7231 24.0936 79.7157 29.0364 79.2689 32.9922C78.9188 36.0928 83.5673 41.1077 105.054 38.9253C134.276 35.9573 136.855 22.1169 136.855 20.1394C136.855 14.4355 130.838 11.2401 126.541 9.26222C115.94 5.30729 85.8375 -1.49713 53.4852 13.2172C16.5284 30.0256 5.35434 58.6994 8.79292 67.5979C12.3012 76.6768 19.1063 79.4623 19.1063 79.4623C11.8122 93.4489 24.3905 98.9934 28.7304 100.906C28.9926 101.022 29.2247 101.124 29.4205 101.214C34.5774 103.587 43.458 105.169 50.0473 105.169L49.1878 109.124C48.3283 112.75 51.7668 120.001 68.0968 120.001C92.328 120.001 108.21 108.649 119.308 100.716L119.31 100.715C120.02 100.207 120.711 99.7129 121.383 99.2369C122.816 98.2482 125.337 95.6775 123.962 93.3045C122.587 90.9316 117.087 94.6233 115.368 96.2712C105.627 103.522 84.5799 115.143 68.0967 116.046C50.0473 117.035 49.1206 109.46 53.4852 105.169C59.215 105.499 74.9725 105.169 86.1451 99.2369C106.435 88.4636 87.0046 79.4628 68.9557 89.3501C60.1081 94.1969 51.7662 101.214 51.7662 101.214C51.7662 101.214 29.4205 103.192 19.9663 92.3163C16.5284 86.3839 21.6852 80.4515 21.6852 80.4515C21.6852 80.4515 54.3452 91.3276 87.0051 76.4966C105.902 67.9155 104.195 59.9078 95.5998 57.7106C90.443 56.3923 78.4104 54.6385 58.6425 58.6994C39.3904 62.6543 25.6956 73.2003 22.5442 77.4848C19.3929 76.4961 12.5747 72.9366 10.512 66.6087C7.61141 57.7105 19.9662 36.946 49.1882 19.1488C78.4103 1.35165 137.713 3.33022 134.276 22.115C131.672 36.3453 100.756 37.9359 87.0046 36.9471C82.1342 36.6179 76.6905 32.9922 85.2852 29.0373ZM61.6897 60.443C47.7063 63.5954 32.647 71.6266 27.0077 76.71C32.3651 77.3881 45.7867 78.5408 56.6142 77.7275C70.1487 76.7108 100.016 68.2844 100.016 62.1001C100.016 54.9825 75.2241 57.3919 61.6897 60.443ZM55.469 102.084C57.8199 99.0309 67.9864 91.6158 73.5175 89.23C80.3938 86.2641 94.0227 84.8632 93.9277 89.2294C93.8451 93.0232 80.3916 98.1288 71.7977 100.106C67.4772 101.1 57.6288 102.562 55.469 102.084Z" fill="black"/>
<path d="M100.756 26.0711L100.419 27.5329V27.5329L100.756 26.0711ZM85.2852 29.0373L85.9123 30.3999V30.3999L85.2852 29.0373ZM104.534 29.2868L103.111 29.7606L103.111 29.7606L104.534 29.2868ZM79.2689 32.9922L77.7784 32.8239V32.8239L79.2689 32.9922ZM105.054 38.9253L104.903 37.433V37.433L105.054 38.9253ZM126.541 9.26222L127.168 7.89961C127.134 7.88409 127.1 7.86983 127.065 7.85685L126.541 9.26222ZM53.4852 13.2172L54.1062 14.5826V14.5826L53.4852 13.2172ZM8.79292 67.5979L10.1921 67.0572H10.1921L8.79292 67.5979ZM19.1063 79.4623L20.4363 80.1559C20.6314 79.7818 20.6599 79.343 20.5149 78.9468C20.37 78.5507 20.0649 78.2339 19.6745 78.0741L19.1063 79.4623ZM28.7304 100.906L29.3355 99.5338H29.3354L28.7304 100.906ZM29.4205 101.214L30.0476 99.8517V99.8517L29.4205 101.214ZM50.0473 105.169L51.5131 105.488C51.6094 105.044 51.4999 104.581 51.2151 104.228C50.9304 103.875 50.501 103.669 50.0473 103.669V105.169ZM49.1878 109.124L50.6474 109.47C50.6495 109.461 50.6516 109.452 50.6536 109.443L49.1878 109.124ZM119.308 100.716L120.18 101.936L120.183 101.934L119.308 100.716ZM119.31 100.715L118.438 99.4942L118.434 99.4967L119.31 100.715ZM121.383 99.2369L120.531 98.0024C120.526 98.0058 120.522 98.0093 120.517 98.0127L121.383 99.2369ZM123.962 93.3045L125.26 92.5524V92.5524L123.962 93.3045ZM115.368 96.2712L116.263 97.4745C116.313 97.4373 116.361 97.3971 116.406 97.354L115.368 96.2712ZM68.0967 116.046L68.1787 117.544V117.544L68.0967 116.046ZM53.4852 105.169L53.5713 103.672C53.1487 103.647 52.7355 103.803 52.4336 104.1L53.4852 105.169ZM86.1451 99.2369L85.4417 97.9121V97.9121L86.1451 99.2369ZM68.9557 89.3501L68.235 88.0346H68.235L68.9557 89.3501ZM51.7662 101.214L51.8985 102.709C52.2052 102.681 52.4962 102.561 52.7319 102.362L51.7662 101.214ZM19.9663 92.3163L18.6685 93.0684C18.7162 93.1508 18.7717 93.2285 18.8342 93.3004L19.9663 92.3163ZM21.6852 80.4515L22.1592 79.0283C21.5843 78.8369 20.9507 79.0101 20.5532 79.4674L21.6852 80.4515ZM87.0051 76.4966L87.6253 77.8624V77.8624L87.0051 76.4966ZM95.5998 57.7106L95.9713 56.2574V56.2574L95.5998 57.7106ZM58.6425 58.6994L58.3407 57.2301V57.2301L58.6425 58.6994ZM22.5442 77.4848L22.0951 78.916C22.7067 79.1079 23.3727 78.89 23.7525 78.3736L22.5442 77.4848ZM10.512 66.6087L9.08585 67.0736H9.08585L10.512 66.6087ZM49.1882 19.1488L48.408 17.8677V17.8677L49.1882 19.1488ZM134.276 22.115L132.8 21.8451V21.8451L134.276 22.115ZM87.0046 36.9471L87.1121 35.451L87.1057 35.4506L87.0046 36.9471ZM27.0077 76.71L26.0034 75.5959C25.5677 75.9886 25.4009 76.5992 25.5764 77.1588C25.7519 77.7185 26.2375 78.1245 26.8193 78.1981L27.0077 76.71ZM61.6897 60.443L61.3598 58.9797V58.9797L61.6897 60.443ZM56.6142 77.7275L56.7266 79.2233V79.2233L56.6142 77.7275ZM73.5175 89.23L74.1116 90.6074V90.6074L73.5175 89.23ZM55.469 102.084L54.2806 101.168C53.9675 101.575 53.884 102.113 54.0591 102.595C54.2342 103.078 54.6437 103.437 55.1446 103.548L55.469 102.084ZM93.9277 89.2294L92.428 89.1968V89.1968L93.9277 89.2294ZM71.7977 100.106L71.4614 98.6443V98.6443L71.7977 100.106ZM100.756 26.0711L101.092 24.6093C96.3096 23.5089 91.2083 24.6605 84.6582 27.6746L85.2852 29.0373L85.9123 30.3999C92.2542 27.4816 96.6071 26.6558 100.419 27.5329L100.756 26.0711ZM104.534 29.2868L105.957 28.8131C105.797 28.332 105.508 27.4297 104.744 26.5767C103.963 25.7049 102.803 25.003 101.092 24.6093L100.756 26.0711L100.419 27.5329C101.641 27.8139 102.213 28.2472 102.509 28.5782C102.823 28.928 102.956 29.2962 103.111 29.7606L104.534 29.2868ZM105.053 30.026V28.526C105.284 28.526 105.528 28.597 105.736 28.7426C105.92 28.8707 106.009 29.01 106.035 29.0537C106.061 29.0975 106.062 29.1114 106.041 29.0548C106.02 29.0002 105.997 28.931 105.957 28.8131L104.534 29.2868L103.111 29.7606C103.164 29.9192 103.278 30.2873 103.457 30.5891C103.687 30.9748 104.192 31.526 105.053 31.526V30.026ZM105.913 29.0373H104.413C104.413 29.1125 104.412 29.1619 104.411 29.2054C104.411 29.2255 104.41 29.2401 104.41 29.2506C104.409 29.2611 104.408 29.2654 104.409 29.2648C104.409 29.2643 104.409 29.2569 104.412 29.244C104.414 29.2311 104.419 29.2108 104.426 29.185C104.441 29.1332 104.47 29.0538 104.525 28.9636C104.582 28.8704 104.657 28.7812 104.75 28.7053C104.84 28.6307 104.928 28.5849 104.995 28.5581C105.116 28.5102 105.163 28.526 105.053 28.526V30.026V31.526C105.667 31.526 106.566 31.3771 107.085 30.5275C107.3 30.1761 107.364 29.8258 107.39 29.6C107.414 29.3807 107.413 29.158 107.413 29.0373H105.913ZM96.4584 24.0936V25.5936C99.5946 25.5936 101.641 26.4905 102.872 27.4007C103.495 27.8618 103.914 28.3292 104.165 28.6953C104.291 28.8793 104.365 29.0235 104.402 29.1147C104.451 29.2319 104.413 29.1932 104.413 29.0373H105.913H107.413C107.413 28.6341 107.294 28.2556 107.174 27.9673C107.044 27.6529 106.863 27.326 106.64 27.0001C106.192 26.3466 105.536 25.6399 104.656 24.9886C102.878 23.6742 100.198 22.5936 96.4584 22.5936V24.0936ZM79.2689 32.9922L80.7595 33.1605C80.8153 32.6662 81.1857 31.9164 82.1117 30.998C83.0079 30.1091 84.2862 29.202 85.8312 28.3857C88.9306 26.7481 92.8773 25.5936 96.4584 25.5936V24.0936V22.5936C92.3042 22.5936 87.8795 23.9105 84.4297 25.7332C82.7001 26.6471 81.1593 27.7174 79.9992 28.8679C78.8689 29.9888 77.9459 31.3403 77.7784 32.8239L79.2689 32.9922ZM105.054 38.9253L104.903 37.433C94.2416 38.5158 87.9721 37.7845 84.4804 36.5284C80.9791 35.2689 80.6976 33.7079 80.7595 33.1605L79.2689 32.9922L77.7784 32.8239C77.4901 35.3771 79.3578 37.8739 83.4649 39.3513C87.5817 40.8323 94.3798 41.5172 105.206 40.4177L105.054 38.9253ZM136.855 20.1394H135.355C135.355 20.715 134.88 24.2766 130.88 28.0729C126.893 31.8569 119.293 35.9714 104.903 37.433L105.054 38.9253L105.206 40.4177C120.037 38.9112 128.338 34.6215 132.945 30.2489C137.54 25.8886 138.355 21.5413 138.355 20.1394H136.855ZM126.541 9.26222L125.914 10.6248C128.05 11.6079 130.46 12.8287 132.33 14.4398C134.183 16.0365 135.355 17.882 135.355 20.1394H136.855H138.355C138.355 16.6929 136.518 14.0887 134.288 12.1673C132.075 10.2602 129.329 8.89437 127.168 7.89961L126.541 9.26222ZM53.4852 13.2172L54.1062 14.5826C85.9833 0.0843902 115.652 6.80065 126.017 10.6676L126.541 9.26222L127.065 7.85685C116.229 3.81393 85.6917 -3.07866 52.8642 11.8517L53.4852 13.2172ZM8.79292 67.5979L10.1921 67.0572C9.50142 65.2698 9.46818 62.1818 10.5759 58.1037C11.6683 54.0822 13.8212 49.2867 17.2354 44.2109C24.058 34.0681 35.871 22.8762 54.1062 14.5826L53.4852 13.2172L52.8642 11.8517C34.1426 20.3666 21.8902 31.9158 14.7462 42.5366C11.1771 47.8426 8.87137 52.9346 7.68084 57.3173C6.50567 61.6436 6.36514 65.4766 7.39375 68.1385L8.79292 67.5979ZM19.1063 79.4623C19.6745 78.0741 19.6751 78.0743 19.6757 78.0746C19.6759 78.0746 19.6765 78.0749 19.6768 78.075C19.6775 78.0753 19.6781 78.0755 19.6785 78.0757C19.6794 78.0761 19.68 78.0763 19.6801 78.0764C19.6803 78.0765 19.679 78.0759 19.6761 78.0747C19.6702 78.0722 19.6581 78.0669 19.6401 78.0589C19.6041 78.0429 19.5444 78.0155 19.4635 77.9761C19.3015 77.8973 19.0547 77.7703 18.7424 77.5886C18.1174 77.225 17.233 76.6443 16.2405 75.795C14.2595 74.0997 11.8435 71.3308 10.1921 67.0572L8.79292 67.5979L7.39375 68.1385C9.25061 72.9438 11.9913 76.1071 14.2899 78.0743C15.4373 79.0562 16.4734 79.7393 17.2339 80.1818C17.6144 80.4031 17.9268 80.5646 18.1506 80.6736C18.2625 80.7281 18.3525 80.7695 18.4179 80.7986C18.4506 80.8132 18.4771 80.8248 18.4973 80.8334C18.5073 80.8377 18.5158 80.8412 18.5226 80.8441C18.526 80.8455 18.529 80.8467 18.5316 80.8478C18.5329 80.8483 18.534 80.8488 18.5351 80.8493C18.5357 80.8495 18.5364 80.8498 18.5367 80.8499C18.5374 80.8502 18.5381 80.8505 19.1063 79.4623ZM28.7304 100.906L29.3354 99.5338C27.1328 98.5629 23.2318 96.8195 20.714 93.759C19.4832 92.2628 18.6071 90.4771 18.4168 88.3131C18.2259 86.1423 18.7138 83.4589 20.4363 80.1559L19.1063 79.4623L17.7763 78.7687C15.8518 82.459 15.1766 85.7136 15.4283 88.5759C15.6806 91.445 16.8527 93.7874 18.3972 95.6649C21.43 99.3515 25.9881 101.337 28.1254 102.279L28.7304 100.906ZM29.4205 101.214L30.0476 99.8517C29.8384 99.7555 29.5941 99.6479 29.3355 99.5338L28.7304 100.906L28.1254 102.279C28.391 102.396 28.6109 102.493 28.7935 102.577L29.4205 101.214ZM50.0473 105.169V103.669C43.6085 103.669 34.9555 102.11 30.0476 99.8517L29.4205 101.214L28.7935 102.577C34.1992 105.065 43.3075 106.669 50.0473 106.669V105.169ZM49.1878 109.124L50.6536 109.443L51.5131 105.488L50.0473 105.169L48.5815 104.851L47.722 108.806L49.1878 109.124ZM68.0968 120.001V118.501C60.1247 118.501 55.5698 116.727 53.1412 114.757C50.723 112.795 50.3708 110.637 50.6474 109.47L49.1878 109.124L47.7283 108.778C47.1454 111.237 48.0827 114.517 51.2513 117.087C54.4095 119.649 59.7388 121.501 68.0968 121.501V120.001ZM119.308 100.716L118.435 99.4957C107.354 107.417 91.8134 118.501 68.0968 118.501V120.001V121.501C92.8427 121.501 109.066 109.881 120.18 101.936L119.308 100.716ZM119.31 100.715L118.434 99.4967L118.432 99.4982L119.308 100.716L120.183 101.934L120.186 101.932L119.31 100.715ZM121.383 99.2369L120.517 98.0127C119.841 98.4909 119.147 98.9868 118.438 99.4942L119.31 100.715L120.182 101.935C120.893 101.427 121.581 100.935 122.25 100.461L121.383 99.2369ZM123.962 93.3045L122.664 94.0566C122.969 94.5828 122.929 95.2013 122.439 96.0183C121.942 96.8472 121.127 97.5911 120.531 98.0024L121.383 99.2369L122.235 100.471C123.072 99.8941 124.234 98.8582 125.012 97.5613C125.797 96.2526 126.33 94.3992 125.26 92.5524L123.962 93.3045ZM115.368 96.2712L116.406 97.354C117.154 96.6363 118.826 95.396 120.434 94.6363C121.248 94.2518 121.91 94.0565 122.358 94.0332C122.569 94.0223 122.659 94.0541 122.675 94.0607C122.68 94.0628 122.673 94.0604 122.663 94.0518C122.653 94.0431 122.655 94.0408 122.664 94.0566L123.962 93.3045L125.26 92.5524C124.536 91.3031 123.275 90.9817 122.203 91.0373C121.179 91.0903 120.101 91.476 119.153 91.9238C117.237 92.8287 115.3 94.2583 114.33 95.1884L115.368 96.2712ZM68.0967 116.046L68.1787 117.544C76.6939 117.077 86.2759 113.859 94.887 109.902C103.517 105.936 111.305 101.165 116.263 97.4745L115.368 96.2712L114.472 95.068C109.69 98.6279 102.084 103.293 93.6343 107.176C85.1658 111.068 75.9827 114.112 68.0147 114.548L68.0967 116.046ZM53.4852 105.169L52.4336 104.1C51.1799 105.332 50.2293 106.872 49.9147 108.54C49.5915 110.253 49.9593 112.035 51.2383 113.554C52.4823 115.031 54.4833 116.139 57.2221 116.822C59.9706 117.508 63.5731 117.796 68.1787 117.544L68.0967 116.046L68.0147 114.548C63.5956 114.79 60.3137 114.502 57.9485 113.912C55.5735 113.319 54.2314 112.45 53.533 111.621C52.8698 110.834 52.6962 109.979 52.8627 109.096C53.0379 108.167 53.6081 107.152 54.5367 106.239L53.4852 105.169ZM86.1451 99.2369L85.4417 97.9121C80.0796 100.759 73.5468 102.292 67.5817 103.064C61.6299 103.834 56.3518 103.832 53.5713 103.672L53.4852 105.169L53.399 106.667C56.3484 106.837 61.8139 106.835 67.9665 106.039C74.1058 105.245 81.0379 103.647 86.8486 100.562L86.1451 99.2369ZM68.9557 89.3501L69.6763 90.6656C74.0086 88.2924 78.4094 87.0614 82.2489 86.7022C86.1227 86.3397 89.293 86.8748 91.2397 87.8789C92.2054 88.377 92.7762 88.94 93.0555 89.4684C93.3135 89.9563 93.3889 90.5328 93.1369 91.2738C92.5829 92.903 90.4503 95.2527 85.4417 97.9121L86.1451 99.2369L86.8486 100.562C91.9847 97.8346 95.032 95.0191 95.9772 92.2397C96.4748 90.7763 96.3798 89.3375 95.7077 88.0662C95.0569 86.8353 93.9379 85.895 92.6149 85.2127C89.9842 83.8558 86.1809 83.3212 81.9694 83.7152C77.7234 84.1125 72.9271 85.4642 68.235 88.0346L68.9557 89.3501ZM51.7662 101.214C52.7319 102.362 52.7318 102.362 52.7317 102.362C52.7318 102.362 52.7318 102.362 52.7318 102.362C52.7319 102.362 52.7322 102.362 52.7326 102.362C52.7333 102.361 52.7345 102.36 52.7363 102.359C52.7398 102.356 52.7453 102.351 52.7527 102.345C52.7676 102.332 52.7905 102.313 52.8209 102.288C52.8818 102.237 52.9733 102.162 53.0935 102.063C53.3338 101.866 53.6887 101.577 54.1429 101.215C55.0515 100.491 56.3563 99.4734 57.935 98.3058C61.099 95.9659 65.3357 93.0435 69.6763 90.6656L68.9557 89.3501L68.235 88.0346C63.7281 90.5035 59.37 93.5133 56.1512 95.8938C54.5385 97.0864 53.2048 98.1263 52.2729 98.8693C51.8068 99.2408 51.4409 99.5383 51.1904 99.7438C51.0652 99.8466 50.9688 99.9263 50.9032 99.9809C50.8704 100.008 50.8453 100.029 50.8281 100.043C50.8195 100.051 50.8129 100.056 50.8083 100.06C50.806 100.062 50.8042 100.063 50.8029 100.065C50.8023 100.065 50.8018 100.066 50.8014 100.066C50.8012 100.066 50.801 100.066 50.8009 100.066C50.8007 100.066 50.8006 100.067 51.7662 101.214ZM19.9663 92.3163L18.8342 93.3004C23.9417 99.176 32.3744 101.457 39.2214 102.332C42.6889 102.775 45.8472 102.869 48.1373 102.853C49.2838 102.846 50.2164 102.81 50.8657 102.776C51.1905 102.759 51.4447 102.743 51.6196 102.73C51.7071 102.724 51.7748 102.719 51.8216 102.715C51.845 102.713 51.8633 102.712 51.8761 102.71C51.8825 102.71 51.8876 102.71 51.8914 102.709C51.8932 102.709 51.8948 102.709 51.8959 102.709C51.8965 102.709 51.8972 102.709 51.8975 102.709C51.898 102.709 51.8985 102.709 51.7662 101.214C51.634 99.7202 51.6343 99.7202 51.6345 99.7202C51.6344 99.7202 51.6346 99.7202 51.6345 99.7202C51.6343 99.7202 51.6338 99.7203 51.6329 99.7203C51.6313 99.7205 51.6282 99.7207 51.6239 99.7211C51.6152 99.7218 51.6012 99.723 51.582 99.7245C51.5437 99.7276 51.4848 99.7322 51.4063 99.7378C51.2493 99.7489 51.0142 99.7643 50.7094 99.7802C50.0998 99.812 49.2128 99.846 48.1166 99.8536C45.9215 99.8687 42.9024 99.7778 39.6017 99.356C32.9123 98.501 25.4451 96.3327 21.0984 91.3322L19.9663 92.3163ZM21.6852 80.4515C20.5532 79.4674 20.5527 79.4679 20.5523 79.4684C20.5521 79.4686 20.5517 79.4691 20.5513 79.4695C20.5506 79.4703 20.5499 79.4712 20.549 79.4722C20.5473 79.4742 20.5453 79.4765 20.543 79.4792C20.5384 79.4846 20.5325 79.4914 20.5255 79.4997C20.5115 79.5163 20.4927 79.5387 20.4697 79.5667C20.4236 79.6227 20.3604 79.7012 20.2834 79.8009C20.1296 79.9999 19.92 80.2845 19.6826 80.6429C19.2101 81.3563 18.6158 82.3802 18.1373 83.6187C17.1817 86.0923 16.6418 89.5711 18.6685 93.0684L19.9663 92.3163L21.2641 91.5642C19.8529 89.1291 20.1725 86.6755 20.9358 84.6998C21.3167 83.7137 21.7968 82.8837 22.1838 82.2994C22.3762 82.0089 22.5425 81.7837 22.6573 81.6351C22.7146 81.561 22.7588 81.5063 22.7866 81.4725C22.8005 81.4556 22.8103 81.4439 22.8156 81.4377C22.8182 81.4346 22.8197 81.4328 22.82 81.4325C22.8201 81.4323 22.82 81.4325 22.8196 81.433C22.8193 81.4332 22.819 81.4336 22.8187 81.434C22.8185 81.4342 22.8181 81.4346 22.818 81.4347C22.8177 81.4352 22.8173 81.4356 21.6852 80.4515ZM87.0051 76.4966L86.3849 75.1308C70.3507 82.412 54.2894 83.3931 42.2034 82.5394C36.1651 82.1129 31.1354 81.2294 27.6217 80.4544C25.8654 80.067 24.4895 79.7071 23.5575 79.4456C23.0916 79.3149 22.7368 79.2089 22.501 79.1363C22.3831 79.1001 22.2951 79.0722 22.2377 79.0538C22.2091 79.0446 22.1881 79.0378 22.175 79.0335C22.1684 79.0314 22.1638 79.0299 22.1612 79.029C22.1598 79.0286 22.159 79.0283 22.1587 79.0282C22.1585 79.0281 22.1586 79.0282 22.1585 79.0281C22.1588 79.0282 22.1592 79.0283 21.6852 80.4515C21.2113 81.8747 21.2119 81.8749 21.2127 81.8751C21.2131 81.8753 21.2139 81.8755 21.2148 81.8758C21.2164 81.8764 21.2186 81.8771 21.2212 81.878C21.2265 81.8797 21.2338 81.8821 21.2431 81.8851C21.2616 81.8912 21.2879 81.8997 21.3221 81.9107C21.3904 81.9326 21.4896 81.964 21.619 82.0037C21.8776 82.0833 22.2563 82.1964 22.7472 82.3341C23.7289 82.6095 25.1597 82.9834 26.9756 83.3839C30.6062 84.1847 35.7828 85.0933 41.992 85.5319C54.4009 86.4085 70.9996 85.4121 87.6253 77.8624L87.0051 76.4966ZM95.5998 57.7106L95.2283 59.1639C97.2053 59.6693 98.6163 60.47 99.4247 61.3691C100.181 62.2099 100.458 63.174 100.159 64.3362C99.837 65.5884 98.8033 67.214 96.5619 69.1032C94.3376 70.9781 91.0319 73.0206 86.3849 75.1308L87.0051 76.4966L87.6253 77.8624C92.4266 75.6821 95.9937 73.5057 98.4954 71.397C100.98 69.3028 102.525 67.1801 103.064 65.0831C103.627 62.8962 103.046 60.91 101.656 59.3632C100.317 57.8748 98.2917 56.8506 95.9713 56.2574L95.5998 57.7106ZM58.6425 58.6994L58.9444 60.1687C78.5063 56.1501 90.3078 57.906 95.2283 59.1639L95.5998 57.7106L95.9713 56.2574C90.5781 54.8786 78.3145 53.1269 58.3407 57.2301L58.6425 58.6994ZM22.5442 77.4848L23.7525 78.3736C25.1544 76.4676 29.1676 72.8833 35.3169 69.2609C41.4205 65.6655 49.5033 62.1082 58.9444 60.1687L58.6425 58.6994L58.3407 57.2301C48.5296 59.2455 40.1389 62.9387 33.7942 66.6761C27.4952 70.3866 23.0853 74.2175 21.3358 76.596L22.5442 77.4848ZM10.512 66.6087L9.08585 67.0736C10.2423 70.6213 12.7049 73.3231 15.2079 75.2399C17.7111 77.1568 20.362 78.3722 22.0951 78.916L22.5442 77.4848L22.9932 76.0536C21.5751 75.6087 19.2413 74.55 17.0319 72.858C14.8222 71.1659 12.8444 68.9241 11.9381 66.1438L10.512 66.6087ZM49.1882 19.1488L48.408 17.8677C33.6643 26.8472 23.1162 36.6098 16.603 45.3175C13.348 49.6691 11.0756 53.791 9.80511 57.4499C8.54496 61.0792 8.21772 64.4104 9.08585 67.0736L10.512 66.6087L11.9381 66.1438C11.356 64.3579 11.4854 61.7568 12.6391 58.4339C13.7826 55.1407 15.8814 51.2907 19.0053 47.1144C25.2498 38.766 35.4901 29.2477 49.9685 20.43L49.1882 19.1488ZM134.276 22.115L135.751 22.385C136.259 19.609 135.595 17.1049 134.009 14.9699C132.457 12.8795 130.065 11.1964 127.168 9.86163C121.378 7.19398 113.148 5.72681 104.031 5.41457C85.7997 4.79024 63.3491 8.76811 48.408 17.8677L49.1882 19.1488L49.9685 20.43C64.2494 11.7324 86.0612 7.80095 103.928 8.41281C112.859 8.71866 120.637 10.156 125.913 12.5864C128.548 13.8006 130.454 15.215 131.601 16.7587C132.715 18.2579 133.152 19.9249 132.8 21.8451L134.276 22.115ZM87.0046 36.9471L86.897 38.4433C93.869 38.9446 105.182 38.7954 115.129 36.7062C120.098 35.6625 124.824 34.115 128.51 31.8535C132.204 29.5869 134.997 26.5067 135.751 22.385L134.276 22.115L132.8 21.8451C132.253 24.8385 130.205 27.2935 126.941 29.2965C123.668 31.3046 119.317 32.7611 114.512 33.7702C104.912 35.7867 93.8918 35.9384 87.1121 35.451L87.0046 36.9471ZM85.2852 29.0373L84.6582 27.6746C82.4249 28.7023 80.8599 29.8102 80.0087 31.0432C79.567 31.6829 79.2965 32.3882 79.2691 33.1362C79.2415 33.8877 79.4637 34.5674 79.8212 35.1431C80.5046 36.2437 81.7013 37.0088 82.8891 37.5103C84.1147 38.0279 85.5325 38.351 86.9034 38.4437L87.0046 36.9471L87.1057 35.4506C86.0414 35.3786 84.9524 35.1251 84.0561 34.7466C83.122 34.3522 82.5817 33.9019 82.3698 33.5605C82.2796 33.4153 82.2645 33.3174 82.2671 33.2462C82.2698 33.1715 82.297 33.009 82.4775 32.7476C82.8707 32.1781 83.8482 31.3497 85.9123 30.3999L85.2852 29.0373ZM27.0077 76.71L28.012 77.8242C30.6822 75.4172 35.7154 72.2106 41.878 69.2001C48.019 66.2003 55.1683 63.4508 62.0195 61.9063L61.6897 60.443L61.3598 58.9797C54.2276 60.5876 46.8556 63.4298 40.5613 66.5046C34.2886 69.5687 28.9725 72.9194 26.0034 75.5959L27.0077 76.71ZM56.6142 77.7275L56.5019 76.2317C45.8184 77.0342 32.5096 75.8944 27.196 75.2219L27.0077 76.71L26.8193 78.1981C32.2206 78.8817 45.755 80.0474 56.7266 79.2233L56.6142 77.7275ZM100.016 62.1001H98.5155C98.5155 62.2677 98.3977 62.7089 97.6571 63.4328C96.9494 64.1248 95.8591 64.8898 94.4081 65.6971C91.5167 67.3058 87.4627 68.9359 82.9224 70.4265C73.839 73.4085 63.1123 75.7351 56.5019 76.2317L56.6142 77.7275L56.7266 79.2233C63.6506 78.7031 74.6246 76.3082 83.8582 73.2768C88.4764 71.7606 92.735 70.061 95.8666 68.3187C97.4271 67.4505 98.7759 66.5346 99.7543 65.578C100.7 64.6535 101.516 63.4785 101.516 62.1001H100.016ZM61.6897 60.443L62.0195 61.9063C68.7072 60.3986 78.1823 59.0507 85.9459 58.9582C89.8461 58.9117 93.1935 59.1848 95.5168 59.8512C96.6811 60.1852 97.4696 60.5855 97.9424 60.9946C98.3722 61.3664 98.5155 61.7134 98.5155 62.1001H100.016H101.516C101.516 60.7074 100.884 59.5727 99.9052 58.7258C98.9694 57.9163 97.7154 57.3609 96.344 56.9675C93.5959 56.1793 89.8996 55.9108 85.9101 55.9584C77.8943 56.0539 68.2065 57.4362 61.3598 58.9797L61.6897 60.443ZM73.5175 89.23L72.9235 87.8527C70.0075 89.1104 65.9787 91.636 62.4256 94.1884C60.6367 95.4735 58.9398 96.7859 57.533 97.9787C56.15 99.1514 54.9707 100.272 54.2806 101.168L55.469 102.084L56.6575 102.999C57.1428 102.369 58.1159 101.418 59.4731 100.267C60.8066 99.1363 62.4379 97.8734 64.1758 96.6249C67.6765 94.1102 71.4965 91.7354 74.1116 90.6074L73.5175 89.23ZM93.9277 89.2294L95.4273 89.2621C95.4488 88.2745 95.0628 87.4302 94.4161 86.789C93.8081 86.1863 93.0111 85.7989 92.2003 85.541C90.5826 85.0265 88.4687 84.8911 86.2751 84.9814C81.8649 85.163 76.5541 86.2867 72.9235 87.8527L73.5175 89.23L74.1116 90.6074C77.3573 89.2074 82.2991 88.1477 86.3986 87.9789C88.4599 87.894 90.1652 88.0418 91.291 88.3999C91.8519 88.5783 92.1579 88.7747 92.3039 88.9194C92.4111 89.0258 92.4303 89.0928 92.428 89.1968L93.9277 89.2294ZM71.7977 100.106L72.1341 101.568C76.5161 100.56 82.1223 98.7594 86.669 96.7173C88.9359 95.6991 91.0048 94.592 92.5368 93.4564C93.3018 92.8893 93.9843 92.2778 94.4912 91.6238C94.9916 90.9781 95.4074 90.1778 95.4273 89.2621L93.9277 89.2294L92.428 89.1968C92.4273 89.2296 92.4046 89.4187 92.1199 89.7861C91.8416 90.1451 91.3924 90.5704 90.7503 91.0463C89.468 91.9968 87.6209 93.001 85.4398 93.9806C81.0907 95.9341 75.6732 97.6752 71.4614 98.6443L71.7977 100.106ZM55.469 102.084L55.1446 103.548C55.9256 103.721 57.1562 103.696 58.4226 103.613C59.7612 103.525 61.3646 103.352 63.0185 103.134C66.321 102.7 69.9131 102.079 72.1341 101.568L71.7977 100.106L71.4614 98.6443C69.3618 99.1274 65.8695 99.7339 62.6277 100.16C61.0094 100.372 59.4757 100.537 58.2253 100.619C56.9028 100.707 56.0924 100.685 55.7934 100.619L55.469 102.084Z" fill="black"/>
<path d="M100.756 26.0711L100.419 27.5329V27.5329L100.756 26.0711ZM85.2852 29.0373L85.9123 30.3999V30.3999L85.2852 29.0373ZM104.534 29.2868L103.111 29.7606L103.111 29.7606L104.534 29.2868ZM79.2689 32.9922L77.7784 32.8239V32.8239L79.2689 32.9922ZM105.054 38.9253L104.903 37.433V37.433L105.054 38.9253ZM126.541 9.26222L127.168 7.89961C127.134 7.88409 127.1 7.86983 127.065 7.85685L126.541 9.26222ZM53.4852 13.2172L54.1062 14.5826V14.5826L53.4852 13.2172ZM8.79292 67.5979L10.1921 67.0572H10.1921L8.79292 67.5979ZM19.1063 79.4623L20.4363 80.1559C20.6314 79.7818 20.6599 79.343 20.5149 78.9468C20.37 78.5507 20.0649 78.2339 19.6745 78.0741L19.1063 79.4623ZM28.7304 100.906L29.3355 99.5338H29.3354L28.7304 100.906ZM29.4205 101.214L30.0476 99.8517V99.8517L29.4205 101.214ZM50.0473 105.169L51.5131 105.488C51.6094 105.044 51.4999 104.581 51.2151 104.228C50.9304 103.875 50.501 103.669 50.0473 103.669V105.169ZM49.1878 109.124L50.6474 109.47C50.6495 109.461 50.6516 109.452 50.6536 109.443L49.1878 109.124ZM119.308 100.716L120.18 101.936L120.183 101.934L119.308 100.716ZM119.31 100.715L118.438 99.4942L118.434 99.4967L119.31 100.715ZM121.383 99.2369L120.531 98.0024C120.526 98.0058 120.522 98.0093 120.517 98.0127L121.383 99.2369ZM123.962 93.3045L125.26 92.5524V92.5524L123.962 93.3045ZM115.368 96.2712L116.263 97.4745C116.313 97.4373 116.361 97.3971 116.406 97.354L115.368 96.2712ZM68.0967 116.046L68.1787 117.544V117.544L68.0967 116.046ZM53.4852 105.169L53.5713 103.672C53.1487 103.647 52.7355 103.803 52.4336 104.1L53.4852 105.169ZM86.1451 99.2369L85.4417 97.9121V97.9121L86.1451 99.2369ZM68.9557 89.3501L68.235 88.0346H68.235L68.9557 89.3501ZM51.7662 101.214L51.8985 102.709C52.2052 102.681 52.4962 102.561 52.7319 102.362L51.7662 101.214ZM19.9663 92.3163L18.6685 93.0684C18.7162 93.1508 18.7717 93.2285 18.8342 93.3004L19.9663 92.3163ZM21.6852 80.4515L22.1592 79.0283C21.5843 78.8369 20.9507 79.0101 20.5532 79.4674L21.6852 80.4515ZM87.0051 76.4966L87.6253 77.8624V77.8624L87.0051 76.4966ZM95.5998 57.7106L95.9713 56.2574V56.2574L95.5998 57.7106ZM58.6425 58.6994L58.3407 57.2301V57.2301L58.6425 58.6994ZM22.5442 77.4848L22.0951 78.916C22.7067 79.1079 23.3727 78.89 23.7525 78.3736L22.5442 77.4848ZM10.512 66.6087L9.08585 67.0736H9.08585L10.512 66.6087ZM49.1882 19.1488L48.408 17.8677V17.8677L49.1882 19.1488ZM134.276 22.115L132.8 21.8451V21.8451L134.276 22.115ZM87.0046 36.9471L87.1121 35.451L87.1057 35.4506L87.0046 36.9471ZM27.0077 76.71L26.0034 75.5959C25.5677 75.9886 25.4009 76.5992 25.5764 77.1588C25.7519 77.7185 26.2375 78.1245 26.8193 78.1981L27.0077 76.71ZM61.6897 60.443L61.3598 58.9797V58.9797L61.6897 60.443ZM56.6142 77.7275L56.7266 79.2233V79.2233L56.6142 77.7275ZM73.5175 89.23L74.1116 90.6074V90.6074L73.5175 89.23ZM55.469 102.084L54.2806 101.168C53.9675 101.575 53.884 102.113 54.0591 102.595C54.2342 103.078 54.6437 103.437 55.1446 103.548L55.469 102.084ZM93.9277 89.2294L92.428 89.1968V89.1968L93.9277 89.2294ZM71.7977 100.106L71.4614 98.6443V98.6443L71.7977 100.106ZM100.756 26.0711L101.092 24.6093C96.3096 23.5089 91.2083 24.6605 84.6582 27.6746L85.2852 29.0373L85.9123 30.3999C92.2542 27.4816 96.6071 26.6558 100.419 27.5329L100.756 26.0711ZM104.534 29.2868L105.957 28.8131C105.797 28.332 105.508 27.4297 104.744 26.5767C103.963 25.7049 102.803 25.003 101.092 24.6093L100.756 26.0711L100.419 27.5329C101.641 27.8139 102.213 28.2472 102.509 28.5782C102.823 28.928 102.956 29.2962 103.111 29.7606L104.534 29.2868ZM105.053 30.026V28.526C105.284 28.526 105.528 28.597 105.736 28.7426C105.92 28.8707 106.009 29.01 106.035 29.0537C106.061 29.0975 106.062 29.1114 106.041 29.0548C106.02 29.0002 105.997 28.931 105.957 28.8131L104.534 29.2868L103.111 29.7606C103.164 29.9192 103.278 30.2873 103.457 30.5891C103.687 30.9748 104.192 31.526 105.053 31.526V30.026ZM105.913 29.0373H104.413C104.413 29.1125 104.412 29.1619 104.411 29.2054C104.411 29.2255 104.41 29.2401 104.41 29.2506C104.409 29.2611 104.408 29.2654 104.409 29.2648C104.409 29.2643 104.409 29.2569 104.412 29.244C104.414 29.2311 104.419 29.2108 104.426 29.185C104.441 29.1332 104.47 29.0538 104.525 28.9636C104.582 28.8704 104.657 28.7812 104.75 28.7053C104.84 28.6307 104.928 28.5849 104.995 28.5581C105.116 28.5102 105.163 28.526 105.053 28.526V30.026V31.526C105.667 31.526 106.566 31.3771 107.085 30.5275C107.3 30.1761 107.364 29.8258 107.39 29.6C107.414 29.3807 107.413 29.158 107.413 29.0373H105.913ZM96.4584 24.0936V25.5936C99.5946 25.5936 101.641 26.4905 102.872 27.4007C103.495 27.8618 103.914 28.3292 104.165 28.6953C104.291 28.8793 104.365 29.0235 104.402 29.1147C104.451 29.2319 104.413 29.1932 104.413 29.0373H105.913H107.413C107.413 28.6341 107.294 28.2556 107.174 27.9673C107.044 27.6529 106.863 27.326 106.64 27.0001C106.192 26.3466 105.536 25.6399 104.656 24.9886C102.878 23.6742 100.198 22.5936 96.4584 22.5936V24.0936ZM79.2689 32.9922L80.7595 33.1605C80.8153 32.6662 81.1857 31.9164 82.1117 30.998C83.0079 30.1091 84.2862 29.202 85.8312 28.3857C88.9306 26.7481 92.8773 25.5936 96.4584 25.5936V24.0936V22.5936C92.3042 22.5936 87.8795 23.9105 84.4297 25.7332C82.7001 26.6471 81.1593 27.7174 79.9992 28.8679C78.8689 29.9888 77.9459 31.3403 77.7784 32.8239L79.2689 32.9922ZM105.054 38.9253L104.903 37.433C94.2416 38.5158 87.9721 37.7845 84.4804 36.5284C80.9791 35.2689 80.6976 33.7079 80.7595 33.1605L79.2689 32.9922L77.7784 32.8239C77.4901 35.3771 79.3578 37.8739 83.4649 39.3513C87.5817 40.8323 94.3798 41.5172 105.206 40.4177L105.054 38.9253ZM136.855 20.1394H135.355C135.355 20.715 134.88 24.2766 130.88 28.0729C126.893 31.8569 119.293 35.9714 104.903 37.433L105.054 38.9253L105.206 40.4177C120.037 38.9112 128.338 34.6215 132.945 30.2489C137.54 25.8886 138.355 21.5413 138.355 20.1394H136.855ZM126.541 9.26222L125.914 10.6248C128.05 11.6079 130.46 12.8287 132.33 14.4398C134.183 16.0365 135.355 17.882 135.355 20.1394H136.855H138.355C138.355 16.6929 136.518 14.0887 134.288 12.1673C132.075 10.2602 129.329 8.89437 127.168 7.89961L126.541 9.26222ZM53.4852 13.2172L54.1062 14.5826C85.9833 0.0843902 115.652 6.80065 126.017 10.6676L126.541 9.26222L127.065 7.85685C116.229 3.81393 85.6917 -3.07866 52.8642 11.8517L53.4852 13.2172ZM8.79292 67.5979L10.1921 67.0572C9.50142 65.2698 9.46818 62.1818 10.5759 58.1037C11.6683 54.0822 13.8212 49.2867 17.2354 44.2109C24.058 34.0681 35.871 22.8762 54.1062 14.5826L53.4852 13.2172L52.8642 11.8517C34.1426 20.3666 21.8902 31.9158 14.7462 42.5366C11.1771 47.8426 8.87137 52.9346 7.68084 57.3173C6.50567 61.6436 6.36514 65.4766 7.39375 68.1385L8.79292 67.5979ZM19.1063 79.4623C19.6745 78.0741 19.6751 78.0743 19.6757 78.0746C19.6759 78.0746 19.6765 78.0749 19.6768 78.075C19.6775 78.0753 19.6781 78.0755 19.6785 78.0757C19.6794 78.0761 19.68 78.0763 19.6801 78.0764C19.6803 78.0765 19.679 78.0759 19.6761 78.0747C19.6702 78.0722 19.6581 78.0669 19.6401 78.0589C19.6041 78.0429 19.5444 78.0155 19.4635 77.9761C19.3015 77.8973 19.0547 77.7703 18.7424 77.5886C18.1174 77.225 17.233 76.6443 16.2405 75.795C14.2595 74.0997 11.8435 71.3308 10.1921 67.0572L8.79292 67.5979L7.39375 68.1385C9.25061 72.9438 11.9913 76.1071 14.2899 78.0743C15.4373 79.0562 16.4734 79.7393 17.2339 80.1818C17.6144 80.4031 17.9268 80.5646 18.1506 80.6736C18.2625 80.7281 18.3525 80.7695 18.4179 80.7986C18.4506 80.8132 18.4771 80.8248 18.4973 80.8334C18.5073 80.8377 18.5158 80.8412 18.5226 80.8441C18.526 80.8455 18.529 80.8467 18.5316 80.8478C18.5329 80.8483 18.534 80.8488 18.5351 80.8493C18.5357 80.8495 18.5364 80.8498 18.5367 80.8499C18.5374 80.8502 18.5381 80.8505 19.1063 79.4623ZM28.7304 100.906L29.3354 99.5338C27.1328 98.5629 23.2318 96.8195 20.714 93.759C19.4832 92.2628 18.6071 90.4771 18.4168 88.3131C18.2259 86.1423 18.7138 83.4589 20.4363 80.1559L19.1063 79.4623L17.7763 78.7687C15.8518 82.459 15.1766 85.7136 15.4283 88.5759C15.6806 91.445 16.8527 93.7874 18.3972 95.6649C21.43 99.3515 25.9881 101.337 28.1254 102.279L28.7304 100.906ZM29.4205 101.214L30.0476 99.8517C29.8384 99.7555 29.5941 99.6479 29.3355 99.5338L28.7304 100.906L28.1254 102.279C28.391 102.396 28.6109 102.493 28.7935 102.577L29.4205 101.214ZM50.0473 105.169V103.669C43.6085 103.669 34.9555 102.11 30.0476 99.8517L29.4205 101.214L28.7935 102.577C34.1992 105.065 43.3075 106.669 50.0473 106.669V105.169ZM49.1878 109.124L50.6536 109.443L51.5131 105.488L50.0473 105.169L48.5815 104.851L47.722 108.806L49.1878 109.124ZM68.0968 120.001V118.501C60.1247 118.501 55.5698 116.727 53.1412 114.757C50.723 112.795 50.3708 110.637 50.6474 109.47L49.1878 109.124L47.7283 108.778C47.1454 111.237 48.0827 114.517 51.2513 117.087C54.4095 119.649 59.7388 121.501 68.0968 121.501V120.001ZM119.308 100.716L118.435 99.4957C107.354 107.417 91.8134 118.501 68.0968 118.501V120.001V121.501C92.8427 121.501 109.066 109.881 120.18 101.936L119.308 100.716ZM119.31 100.715L118.434 99.4967L118.432 99.4982L119.308 100.716L120.183 101.934L120.186 101.932L119.31 100.715ZM121.383 99.2369L120.517 98.0127C119.841 98.4909 119.147 98.9868 118.438 99.4942L119.31 100.715L120.182 101.935C120.893 101.427 121.581 100.935 122.25 100.461L121.383 99.2369ZM123.962 93.3045L122.664 94.0566C122.969 94.5828 122.929 95.2013 122.439 96.0183C121.942 96.8472 121.127 97.5911 120.531 98.0024L121.383 99.2369L122.235 100.471C123.072 99.8941 124.234 98.8582 125.012 97.5613C125.797 96.2526 126.33 94.3992 125.26 92.5524L123.962 93.3045ZM115.368 96.2712L116.406 97.354C117.154 96.6363 118.826 95.396 120.434 94.6363C121.248 94.2518 121.91 94.0565 122.358 94.0332C122.569 94.0223 122.659 94.0541 122.675 94.0607C122.68 94.0628 122.673 94.0604 122.663 94.0518C122.653 94.0431 122.655 94.0408 122.664 94.0566L123.962 93.3045L125.26 92.5524C124.536 91.3031 123.275 90.9817 122.203 91.0373C121.179 91.0903 120.101 91.476 119.153 91.9238C117.237 92.8287 115.3 94.2583 114.33 95.1884L115.368 96.2712ZM68.0967 116.046L68.1787 117.544C76.6939 117.077 86.2759 113.859 94.887 109.902C103.517 105.936 111.305 101.165 116.263 97.4745L115.368 96.2712L114.472 95.068C109.69 98.6279 102.084 103.293 93.6343 107.176C85.1658 111.068 75.9827 114.112 68.0147 114.548L68.0967 116.046ZM53.4852 105.169L52.4336 104.1C51.1799 105.332 50.2293 106.872 49.9147 108.54C49.5915 110.253 49.9593 112.035 51.2383 113.554C52.4823 115.031 54.4833 116.139 57.2221 116.822C59.9706 117.508 63.5731 117.796 68.1787 117.544L68.0967 116.046L68.0147 114.548C63.5956 114.79 60.3137 114.502 57.9485 113.912C55.5735 113.319 54.2314 112.45 53.533 111.621C52.8698 110.834 52.6962 109.979 52.8627 109.096C53.0379 108.167 53.6081 107.152 54.5367 106.239L53.4852 105.169ZM86.1451 99.2369L85.4417 97.9121C80.0796 100.759 73.5468 102.292 67.5817 103.064C61.6299 103.834 56.3518 103.832 53.5713 103.672L53.4852 105.169L53.399 106.667C56.3484 106.837 61.8139 106.835 67.9665 106.039C74.1058 105.245 81.0379 103.647 86.8486 100.562L86.1451 99.2369ZM68.9557 89.3501L69.6763 90.6656C74.0086 88.2924 78.4094 87.0614 82.2489 86.7022C86.1227 86.3397 89.293 86.8748 91.2397 87.8789C92.2054 88.377 92.7762 88.94 93.0555 89.4684C93.3135 89.9563 93.3889 90.5328 93.1369 91.2738C92.5829 92.903 90.4503 95.2527 85.4417 97.9121L86.1451 99.2369L86.8486 100.562C91.9847 97.8346 95.032 95.0191 95.9772 92.2397C96.4748 90.7763 96.3798 89.3375 95.7077 88.0662C95.0569 86.8353 93.9379 85.895 92.6149 85.2127C89.9842 83.8558 86.1809 83.3212 81.9694 83.7152C77.7234 84.1125 72.9271 85.4642 68.235 88.0346L68.9557 89.3501ZM51.7662 101.214C52.7319 102.362 52.7318 102.362 52.7317 102.362C52.7318 102.362 52.7318 102.362 52.7318 102.362C52.7319 102.362 52.7322 102.362 52.7326 102.362C52.7333 102.361 52.7345 102.36 52.7363 102.359C52.7398 102.356 52.7453 102.351 52.7527 102.345C52.7676 102.332 52.7905 102.313 52.8209 102.288C52.8818 102.237 52.9733 102.162 53.0935 102.063C53.3338 101.866 53.6887 101.577 54.1429 101.215C55.0515 100.491 56.3563 99.4734 57.935 98.3058C61.099 95.9659 65.3357 93.0435 69.6763 90.6656L68.9557 89.3501L68.235 88.0346C63.7281 90.5035 59.37 93.5133 56.1512 95.8938C54.5385 97.0864 53.2048 98.1263 52.2729 98.8693C51.8068 99.2408 51.4409 99.5383 51.1904 99.7438C51.0652 99.8466 50.9688 99.9263 50.9032 99.9809C50.8704 100.008 50.8453 100.029 50.8281 100.043C50.8195 100.051 50.8129 100.056 50.8083 100.06C50.806 100.062 50.8042 100.063 50.8029 100.065C50.8023 100.065 50.8018 100.066 50.8014 100.066C50.8012 100.066 50.801 100.066 50.8009 100.066C50.8007 100.066 50.8006 100.067 51.7662 101.214ZM19.9663 92.3163L18.8342 93.3004C23.9417 99.176 32.3744 101.457 39.2214 102.332C42.6889 102.775 45.8472 102.869 48.1373 102.853C49.2838 102.846 50.2164 102.81 50.8657 102.776C51.1905 102.759 51.4447 102.743 51.6196 102.73C51.7071 102.724 51.7748 102.719 51.8216 102.715C51.845 102.713 51.8633 102.712 51.8761 102.71C51.8825 102.71 51.8876 102.71 51.8914 102.709C51.8932 102.709 51.8948 102.709 51.8959 102.709C51.8965 102.709 51.8972 102.709 51.8975 102.709C51.898 102.709 51.8985 102.709 51.7662 101.214C51.634 99.7202 51.6343 99.7202 51.6345 99.7202C51.6344 99.7202 51.6346 99.7202 51.6345 99.7202C51.6343 99.7202 51.6338 99.7203 51.6329 99.7203C51.6313 99.7205 51.6282 99.7207 51.6239 99.7211C51.6152 99.7218 51.6012 99.723 51.582 99.7245C51.5437 99.7276 51.4848 99.7322 51.4063 99.7378C51.2493 99.7489 51.0142 99.7643 50.7094 99.7802C50.0998 99.812 49.2128 99.846 48.1166 99.8536C45.9215 99.8687 42.9024 99.7778 39.6017 99.356C32.9123 98.501 25.4451 96.3327 21.0984 91.3322L19.9663 92.3163ZM21.6852 80.4515C20.5532 79.4674 20.5527 79.4679 20.5523 79.4684C20.5521 79.4686 20.5517 79.4691 20.5513 79.4695C20.5506 79.4703 20.5499 79.4712 20.549 79.4722C20.5473 79.4742 20.5453 79.4765 20.543 79.4792C20.5384 79.4846 20.5325 79.4914 20.5255 79.4997C20.5115 79.5163 20.4927 79.5387 20.4697 79.5667C20.4236 79.6227 20.3604 79.7012 20.2834 79.8009C20.1296 79.9999 19.92 80.2845 19.6826 80.6429C19.2101 81.3563 18.6158 82.3802 18.1373 83.6187C17.1817 86.0923 16.6418 89.5711 18.6685 93.0684L19.9663 92.3163L21.2641 91.5642C19.8529 89.1291 20.1725 86.6755 20.9358 84.6998C21.3167 83.7137 21.7968 82.8837 22.1838 82.2994C22.3762 82.0089 22.5425 81.7837 22.6573 81.6351C22.7146 81.561 22.7588 81.5063 22.7866 81.4725C22.8005 81.4556 22.8103 81.4439 22.8156 81.4377C22.8182 81.4346 22.8197 81.4328 22.82 81.4325C22.8201 81.4323 22.82 81.4325 22.8196 81.433C22.8193 81.4332 22.819 81.4336 22.8187 81.434C22.8185 81.4342 22.8181 81.4346 22.818 81.4347C22.8177 81.4352 22.8173 81.4356 21.6852 80.4515ZM87.0051 76.4966L86.3849 75.1308C70.3507 82.412 54.2894 83.3931 42.2034 82.5394C36.1651 82.1129 31.1354 81.2294 27.6217 80.4544C25.8654 80.067 24.4895 79.7071 23.5575 79.4456C23.0916 79.3149 22.7368 79.2089 22.501 79.1363C22.3831 79.1001 22.2951 79.0722 22.2377 79.0538C22.2091 79.0446 22.1881 79.0378 22.175 79.0335C22.1684 79.0314 22.1638 79.0299 22.1612 79.029C22.1598 79.0286 22.159 79.0283 22.1587 79.0282C22.1585 79.0281 22.1586 79.0282 22.1585 79.0281C22.1588 79.0282 22.1592 79.0283 21.6852 80.4515C21.2113 81.8747 21.2119 81.8749 21.2127 81.8751C21.2131 81.8753 21.2139 81.8755 21.2148 81.8758C21.2164 81.8764 21.2186 81.8771 21.2212 81.878C21.2265 81.8797 21.2338 81.8821 21.2431 81.8851C21.2616 81.8912 21.2879 81.8997 21.3221 81.9107C21.3904 81.9326 21.4896 81.964 21.619 82.0037C21.8776 82.0833 22.2563 82.1964 22.7472 82.3341C23.7289 82.6095 25.1597 82.9834 26.9756 83.3839C30.6062 84.1847 35.7828 85.0933 41.992 85.5319C54.4009 86.4085 70.9996 85.4121 87.6253 77.8624L87.0051 76.4966ZM95.5998 57.7106L95.2283 59.1639C97.2053 59.6693 98.6163 60.47 99.4247 61.3691C100.181 62.2099 100.458 63.174 100.159 64.3362C99.837 65.5884 98.8033 67.214 96.5619 69.1032C94.3376 70.9781 91.0319 73.0206 86.3849 75.1308L87.0051 76.4966L87.6253 77.8624C92.4266 75.6821 95.9937 73.5057 98.4954 71.397C100.98 69.3028 102.525 67.1801 103.064 65.0831C103.627 62.8962 103.046 60.91 101.656 59.3632C100.317 57.8748 98.2917 56.8506 95.9713 56.2574L95.5998 57.7106ZM58.6425 58.6994L58.9444 60.1687C78.5063 56.1501 90.3078 57.906 95.2283 59.1639L95.5998 57.7106L95.9713 56.2574C90.5781 54.8786 78.3145 53.1269 58.3407 57.2301L58.6425 58.6994ZM22.5442 77.4848L23.7525 78.3736C25.1544 76.4676 29.1676 72.8833 35.3169 69.2609C41.4205 65.6655 49.5033 62.1082 58.9444 60.1687L58.6425 58.6994L58.3407 57.2301C48.5296 59.2455 40.1389 62.9387 33.7942 66.6761C27.4952 70.3866 23.0853 74.2175 21.3358 76.596L22.5442 77.4848ZM10.512 66.6087L9.08585 67.0736C10.2423 70.6213 12.7049 73.3231 15.2079 75.2399C17.7111 77.1568 20.362 78.3722 22.0951 78.916L22.5442 77.4848L22.9932 76.0536C21.5751 75.6087 19.2413 74.55 17.0319 72.858C14.8222 71.1659 12.8444 68.9241 11.9381 66.1438L10.512 66.6087ZM49.1882 19.1488L48.408 17.8677C33.6643 26.8472 23.1162 36.6098 16.603 45.3175C13.348 49.6691 11.0756 53.791 9.80511 57.4499C8.54496 61.0792 8.21772 64.4104 9.08585 67.0736L10.512 66.6087L11.9381 66.1438C11.356 64.3579 11.4854 61.7568 12.6391 58.4339C13.7826 55.1407 15.8814 51.2907 19.0053 47.1144C25.2498 38.766 35.4901 29.2477 49.9685 20.43L49.1882 19.1488ZM134.276 22.115L135.751 22.385C136.259 19.609 135.595 17.1049 134.009 14.9699C132.457 12.8795 130.065 11.1964 127.168 9.86163C121.378 7.19398 113.148 5.72681 104.031 5.41457C85.7997 4.79024 63.3491 8.76811 48.408 17.8677L49.1882 19.1488L49.9685 20.43C64.2494 11.7324 86.0612 7.80095 103.928 8.41281C112.859 8.71866 120.637 10.156 125.913 12.5864C128.548 13.8006 130.454 15.215 131.601 16.7587C132.715 18.2579 133.152 19.9249 132.8 21.8451L134.276 22.115ZM87.0046 36.9471L86.897 38.4433C93.869 38.9446 105.182 38.7954 115.129 36.7062C120.098 35.6625 124.824 34.115 128.51 31.8535C132.204 29.5869 134.997 26.5067 135.751 22.385L134.276 22.115L132.8 21.8451C132.253 24.8385 130.205 27.2935 126.941 29.2965C123.668 31.3046 119.317 32.7611 114.512 33.7702C104.912 35.7867 93.8918 35.9384 87.1121 35.451L87.0046 36.9471ZM85.2852 29.0373L84.6582 27.6746C82.4249 28.7023 80.8599 29.8102 80.0087 31.0432C79.567 31.6829 79.2965 32.3882 79.2691 33.1362C79.2415 33.8877 79.4637 34.5674 79.8212 35.1431C80.5046 36.2437 81.7013 37.0088 82.8891 37.5103C84.1147 38.0279 85.5325 38.351 86.9034 38.4437L87.0046 36.9471L87.1057 35.4506C86.0414 35.3786 84.9524 35.1251 84.0561 34.7466C83.122 34.3522 82.5817 33.9019 82.3698 33.5605C82.2796 33.4153 82.2645 33.3174 82.2671 33.2462C82.2698 33.1715 82.297 33.009 82.4775 32.7476C82.8707 32.1781 83.8482 31.3497 85.9123 30.3999L85.2852 29.0373ZM27.0077 76.71L28.012 77.8242C30.6822 75.4172 35.7154 72.2106 41.878 69.2001C48.019 66.2003 55.1683 63.4508 62.0195 61.9063L61.6897 60.443L61.3598 58.9797C54.2276 60.5876 46.8556 63.4298 40.5613 66.5046C34.2886 69.5687 28.9725 72.9194 26.0034 75.5959L27.0077 76.71ZM56.6142 77.7275L56.5019 76.2317C45.8184 77.0342 32.5096 75.8944 27.196 75.2219L27.0077 76.71L26.8193 78.1981C32.2206 78.8817 45.755 80.0474 56.7266 79.2233L56.6142 77.7275ZM100.016 62.1001H98.5155C98.5155 62.2677 98.3977 62.7089 97.6571 63.4328C96.9494 64.1248 95.8591 64.8898 94.4081 65.6971C91.5167 67.3058 87.4627 68.9359 82.9224 70.4265C73.839 73.4085 63.1123 75.7351 56.5019 76.2317L56.6142 77.7275L56.7266 79.2233C63.6506 78.7031 74.6246 76.3082 83.8582 73.2768C88.4764 71.7606 92.735 70.061 95.8666 68.3187C97.4271 67.4505 98.7759 66.5346 99.7543 65.578C100.7 64.6535 101.516 63.4785 101.516 62.1001H100.016ZM61.6897 60.443L62.0195 61.9063C68.7072 60.3986 78.1823 59.0507 85.9459 58.9582C89.8461 58.9117 93.1935 59.1848 95.5168 59.8512C96.6811 60.1852 97.4696 60.5855 97.9424 60.9946C98.3722 61.3664 98.5155 61.7134 98.5155 62.1001H100.016H101.516C101.516 60.7074 100.884 59.5727 99.9052 58.7258C98.9694 57.9163 97.7154 57.3609 96.344 56.9675C93.5959 56.1793 89.8996 55.9108 85.9101 55.9584C77.8943 56.0539 68.2065 57.4362 61.3598 58.9797L61.6897 60.443ZM73.5175 89.23L72.9235 87.8527C70.0075 89.1104 65.9787 91.636 62.4256 94.1884C60.6367 95.4735 58.9398 96.7859 57.533 97.9787C56.15 99.1514 54.9707 100.272 54.2806 101.168L55.469 102.084L56.6575 102.999C57.1428 102.369 58.1159 101.418 59.4731 100.267C60.8066 99.1363 62.4379 97.8734 64.1758 96.6249C67.6765 94.1102 71.4965 91.7354 74.1116 90.6074L73.5175 89.23ZM93.9277 89.2294L95.4273 89.2621C95.4488 88.2745 95.0628 87.4302 94.4161 86.789C93.8081 86.1863 93.0111 85.7989 92.2003 85.541C90.5826 85.0265 88.4687 84.8911 86.2751 84.9814C81.8649 85.163 76.5541 86.2867 72.9235 87.8527L73.5175 89.23L74.1116 90.6074C77.3573 89.2074 82.2991 88.1477 86.3986 87.9789C88.4599 87.894 90.1652 88.0418 91.291 88.3999C91.8519 88.5783 92.1579 88.7747 92.3039 88.9194C92.4111 89.0258 92.4303 89.0928 92.428 89.1968L93.9277 89.2294ZM71.7977 100.106L72.1341 101.568C76.5161 100.56 82.1223 98.7594 86.669 96.7173C88.9359 95.6991 91.0048 94.592 92.5368 93.4564C93.3018 92.8893 93.9843 92.2778 94.4912 91.6238C94.9916 90.9781 95.4074 90.1778 95.4273 89.2621L93.9277 89.2294L92.428 89.1968C92.4273 89.2296 92.4046 89.4187 92.1199 89.7861C91.8416 90.1451 91.3924 90.5704 90.7503 91.0463C89.468 91.9968 87.6209 93.001 85.4398 93.9806C81.0907 95.9341 75.6732 97.6752 71.4614 98.6443L71.7977 100.106ZM55.469 102.084L55.1446 103.548C55.9256 103.721 57.1562 103.696 58.4226 103.613C59.7612 103.525 61.3646 103.352 63.0185 103.134C66.321 102.7 69.9131 102.079 72.1341 101.568L71.7977 100.106L71.4614 98.6443C69.3618 99.1274 65.8695 99.7339 62.6277 100.16C61.0094 100.372 59.4757 100.537 58.2253 100.619C56.9028 100.707 56.0924 100.685 55.7934 100.619L55.469 102.084Z" fill="black" fill-opacity="0.2"/>
</g>
<defs>
<filter id="filter0_d_3268_3610" x="0.00312519" y="-0.000781059" width="145.048" height="132.201" filterUnits="userSpaceOnUse" color-interpolation-filters="sRGB">
<feFlood flood-opacity="0" result="BackgroundImageFix"/>
<feColorMatrix in="SourceAlpha" type="matrix" values="0 0 0 0 0 0 0 0 0 0 0 0 0 0 0 0 0 0 127 0" result="hardAlpha"/>
<feOffset dy="4"/>
<feGaussianBlur stdDeviation="3.35"/>
<feComposite in2="hardAlpha" operator="out"/>
<feColorMatrix type="matrix" values="0 0 0 0 0 0 0 0 0 0 0 0 0 0 0 0 0 0 0.08 0"/>
<feBlend mode="normal" in2="BackgroundImageFix" result="effect1_dropShadow_3268_3610"/>
<feBlend mode="normal" in="SourceGraphic" in2="effect1_dropShadow_3268_3610" result="shape"/>
</filter>
</defs>
</svg>
